<svg width="61" height="61" viewBox="0 0 61 61" fill="none" xmlns="http://www.w3.org/2000/svg">
<path d="M30.5001 7.5634C42.9797 7.5634 53.1903 17.774 53.1903 30.2536C53.1903 42.7332 42.9797 52.9438 30.5001 52.9438C18.0205 52.9438 7.80989 42.7332 7.80989 30.2536C7.80989 17.774 18.0205 7.5634 30.5001 7.5634ZM30.5001 3.78171C15.9405 3.78171 4.0282 15.6941 4.0282 30.2536C4.0282 44.8131 15.9405 56.7255 30.5001 56.7255C45.0596 56.7255 56.9719 44.8131 56.9719 30.2536C56.9719 15.6941 45.0596 3.78171 30.5001 3.78171Z" fill="#FF3D31"/>
<path d="M45.6269 28.3627H32.3909V15.1268H28.6092V28.3627H15.3733V32.1444H28.6092V45.3803H32.3909V32.1444H45.6269V28.3627Z" fill="#FF3D31"/>
</svg>
