<svg width="48" height="47" viewBox="0 0 48 47" fill="none" xmlns="http://www.w3.org/2000/svg">
<path d="M5.90497 10.16H2.61497C2.17869 10.16 1.76028 9.98669 1.45178 9.67819C1.14328 9.3697 0.969971 8.95128 0.969971 8.515C0.969971 8.07872 1.14328 7.66031 1.45178 7.35181C1.76028 7.04331 2.17869 6.87 2.61497 6.87H15.775V1.93171C15.775 1.49543 15.9483 1.07702 16.2568 0.768522C16.5653 0.460025 16.9837 0.286713 17.42 0.286713H30.58C31.0163 0.286713 31.4347 0.460025 31.7432 0.768522C32.0517 1.07702 32.225 1.49543 32.225 1.93171V6.87H45.385C45.8213 6.87 46.2397 7.04331 46.5482 7.35181C46.8567 7.66031 47.03 8.07872 47.03 8.515C47.03 8.95128 46.8567 9.3697 46.5482 9.67819C46.2397 9.98669 45.8213 10.16 45.385 10.16H42.095V44.705C42.095 45.1413 41.9217 45.5597 41.6132 45.8682C41.3047 46.1767 40.8863 46.35 40.45 46.35H7.54997C7.11369 46.35 6.69528 46.1767 6.38678 45.8682C6.07828 45.5597 5.90497 45.1413 5.90497 44.705V10.16ZM28.935 6.87V3.58H19.065V6.87H28.935ZM9.19497 43.06H38.805V10.16H9.19497V43.06ZM19.065 36.48C18.6287 36.48 18.2103 36.3067 17.9018 35.9982C17.5933 35.6897 17.42 35.2713 17.42 34.835V18.385C17.42 17.9487 17.5933 17.5303 17.9018 17.2218C18.2103 16.9133 18.6287 16.74 19.065 16.74C19.5013 16.74 19.9197 16.9133 20.2282 17.2218C20.5367 17.5303 20.71 17.9487 20.71 18.385V34.835C20.71 35.2713 20.5367 35.6897 20.2282 35.9982C19.9197 36.3067 19.5013 36.48 19.065 36.48ZM28.935 36.48C28.4987 36.48 28.0803 36.3067 27.7718 35.9982C27.4633 35.6897 27.29 35.2713 27.29 34.835V18.385C27.29 17.9487 27.4633 17.5303 27.7718 17.2218C28.0803 16.9133 28.4987 16.74 28.935 16.74C29.3713 16.74 29.7897 16.9133 30.0982 17.2218C30.4067 17.5303 30.58 17.9487 30.58 18.385V34.835C30.58 35.2713 30.4067 35.6897 30.0982 35.9982C29.7897 36.3067 29.3713 36.48 28.935 36.48Z" fill="#FF3D31"/>
</svg>
