<svg width="29" height="29" viewBox="0 0 29 29" fill="none" xmlns="http://www.w3.org/2000/svg">
<path d="M7.09618 20.9548C7.15077 20.9548 7.20535 20.9493 7.25993 20.9411L11.8503 20.1361C11.9049 20.1251 11.9567 20.1006 11.9949 20.0596L23.5636 8.49095C23.5889 8.4657 23.609 8.43571 23.6227 8.4027C23.6364 8.36968 23.6434 8.33429 23.6434 8.29855C23.6434 8.26281 23.6364 8.22741 23.6227 8.1944C23.609 8.16138 23.5889 8.13139 23.5636 8.10615L19.0278 3.56764C18.976 3.51579 18.9078 3.48849 18.8341 3.48849C18.7604 3.48849 18.6922 3.51579 18.6403 3.56764L7.07162 15.1363C7.03068 15.1773 7.00612 15.2264 6.99521 15.281L6.19012 19.8713C6.16357 20.0175 6.17306 20.168 6.21776 20.3097C6.26246 20.4514 6.34102 20.5801 6.44666 20.6846C6.62678 20.8593 6.85329 20.9548 7.09618 20.9548ZM8.9356 16.1952L18.8341 6.29948L20.8345 8.29991L10.936 18.1957L8.50986 18.6241L8.9356 16.1952ZM24.0794 23.2472H3.99319C3.51014 23.2472 3.11987 23.6375 3.11987 24.1206V25.103C3.11987 25.2231 3.21812 25.3214 3.3382 25.3214H24.7344C24.8545 25.3214 24.9527 25.2231 24.9527 25.103V24.1206C24.9527 23.6375 24.5625 23.2472 24.0794 23.2472Z" fill="white"/>
</svg>
