<svg width="29" height="29" viewBox="0 0 29 29" fill="black" xmlns="http://www.w3.org/2000/svg">
<path d="M4.91096 7.41838H3.16433C2.93271 7.41838 2.71058 7.32637 2.5468 7.16259C2.38303 6.99881 2.29102 6.77668 2.29102 6.54506C2.29102 6.31344 2.38303 6.09131 2.5468 5.92754C2.71058 5.76376 2.93271 5.67175 3.16433 5.67175H10.1508V3.05006C10.1508 2.81844 10.2429 2.59631 10.4066 2.43253C10.5704 2.26875 10.7925 2.17674 11.0242 2.17674H18.0107C18.2423 2.17674 18.4644 2.26875 18.6282 2.43253C18.792 2.59631 18.884 2.81844 18.884 3.05006V5.67175H25.8705C26.1021 5.67175 26.3243 5.76376 26.488 5.92754C26.6518 6.09131 26.7438 6.31344 26.7438 6.54506C26.7438 6.77668 26.6518 6.99881 26.488 7.16259C26.3243 7.32637 26.1021 7.41838 25.8705 7.41838H24.1239V25.758C24.1239 25.9896 24.0319 26.2117 23.8681 26.3755C23.7043 26.5393 23.4822 26.6313 23.2506 26.6313H5.78427C5.55266 26.6313 5.33053 26.5393 5.16675 26.3755C5.00297 26.2117 4.91096 25.9896 4.91096 25.758V7.41838ZM17.1374 5.67175V3.92512H11.8975V5.67175H17.1374ZM6.65759 24.8847H22.3773V7.41838H6.65759V24.8847ZM11.8975 21.3914C11.6659 21.3914 11.4437 21.2994 11.2799 21.1356C11.1162 20.9718 11.0242 20.7497 11.0242 20.5181V11.785C11.0242 11.5533 11.1162 11.3312 11.2799 11.1674C11.4437 11.0036 11.6659 10.9116 11.8975 10.9116C12.1291 10.9116 12.3512 11.0036 12.515 11.1674C12.6788 11.3312 12.7708 11.5533 12.7708 11.785V20.5181C12.7708 20.7497 12.6788 20.9718 12.515 21.1356C12.3512 21.2994 12.1291 21.3914 11.8975 21.3914ZM17.1374 21.3914C16.9057 21.3914 16.6836 21.2994 16.5198 21.1356C16.3561 20.9718 16.264 20.7497 16.264 20.5181V11.785C16.264 11.5533 16.3561 11.3312 16.5198 11.1674C16.6836 11.0036 16.9057 10.9116 17.1374 10.9116C17.369 10.9116 17.5911 11.0036 17.7549 11.1674C17.9187 11.3312 18.0107 11.5533 18.0107 11.785V20.5181C18.0107 20.7497 17.9187 20.9718 17.7549 21.1356C17.5911 21.2994 17.369 21.3914 17.1374 21.3914Z" fill="#F5F5F5"/>
</svg>
