<svg width="116" height="64" viewBox="0 0 116 64" fill="none" xmlns="http://www.w3.org/2000/svg">
<g clip-path="url(#clip0_6_140)">
<path d="M85.1039 51.199C84.3509 50.2791 83.897 49.1516 83.8032 47.9674C83.7091 46.783 83.9795 45.5982 84.5781 44.5716C85.4061 43.2133 86.2734 41.8877 87.2065 40.5819C89.6574 37.0911 94.0598 36.3563 96.6092 38.666C99.1586 40.9758 99.3624 44.9258 97.4107 47.7277C96.6573 48.8083 95.9369 49.9129 95.249 51.0414C93.994 53.115 91.5037 53.5677 89.6639 53.489C89.2247 53.4865 88.7951 53.6175 88.4324 53.865C88.0698 54.1123 87.7911 54.4641 87.6335 54.8736C87.443 55.3393 87.2591 55.8118 87.0817 56.2842L106.518 56.2252C106.518 55.9693 106.518 55.7069 106.518 55.4443C106.219 42.5496 100.844 30.2919 91.5575 21.328C82.2707 12.364 69.8205 7.41617 56.9056 7.55688C43.9905 7.69758 31.6514 12.9155 22.5626 22.0797C13.4739 31.2439 8.36785 43.6158 8.35126 56.514L44.7728 56.409C44.9437 55.825 45.1276 55.2607 45.3115 54.6898C46.817 50.1028 48.6641 45.635 50.8375 41.3234C51.4946 40.0111 51.6458 38.5085 51.1595 37.5768C50.2264 35.7918 49.7009 32.5636 51.8165 29.1054C54.5489 24.6105 57.6244 20.3326 61.0156 16.31C61.2556 16.0191 61.5652 15.7934 61.9158 15.6539C62.0486 15.5911 62.1971 15.5694 62.3422 15.5916C62.4876 15.6138 62.6227 15.6789 62.7305 15.7785C63.0525 16.1329 62.8489 16.9006 62.3364 17.5108C59.7704 20.5477 57.3897 23.7359 55.207 27.0582C54.9997 27.3593 54.8771 27.7107 54.8522 28.0752C54.838 28.1979 54.8545 28.322 54.9004 28.4367C54.9462 28.5512 55.02 28.6525 55.1151 28.7315C55.5224 29.0529 56.2781 28.6527 56.7381 27.9441C58.8811 24.6842 61.2202 21.5574 63.7424 18.5804C63.9709 18.3007 64.2704 18.0876 64.6097 17.9636C64.7268 17.9121 64.8545 17.8906 64.9819 17.9009C65.1092 17.9112 65.232 17.9531 65.3392 18.0226C65.7531 18.3245 65.5889 19.1578 65.0567 19.7878C62.5837 22.7099 60.2886 25.7776 58.1837 28.9743C57.9845 29.2682 57.8687 29.6106 57.8485 29.965C57.84 30.0917 57.864 30.2181 57.9181 30.3331C57.9719 30.4478 58.0544 30.5469 58.1573 30.6213C58.2716 30.6856 58.4007 30.7194 58.5318 30.7194C58.6631 30.7194 58.7921 30.6856 58.9065 30.6213C59.2141 30.4738 59.4772 30.2474 59.6686 29.965C61.7319 26.819 63.9855 23.8017 66.4168 20.9295C66.9423 20.2733 67.7309 20.0437 68.0922 20.4111C68.1686 20.5004 68.2239 20.6059 68.2534 20.7196C68.283 20.8332 68.2863 20.9522 68.2631 21.0673C68.2061 21.4076 68.0561 21.7255 67.8295 21.986C65.4452 24.8008 63.2334 27.7567 61.2062 30.8379C60.7659 31.4939 60.7462 32.3208 61.2062 32.5569C61.3159 32.6134 61.4376 32.6428 61.561 32.6428C61.6844 32.6428 61.806 32.6134 61.9158 32.5569C62.2191 32.4134 62.4746 32.1855 62.6518 31.9008C64.6401 28.8743 66.8101 25.9707 69.1501 23.2063C69.6167 22.6486 70.3131 22.3862 70.7008 22.6618C70.8116 22.7486 70.8956 22.8648 70.9434 22.9971C70.9909 23.1295 71.0003 23.2725 70.9702 23.4099C70.9176 23.7399 70.7743 24.0487 70.5563 24.3023C67.5717 27.8279 64.8652 31.5794 62.4612 35.5229C61.7761 36.7016 60.8336 37.7108 59.704 38.4753C58.5743 39.2399 57.2866 39.7401 55.9365 39.9389C54.9115 40.0636 53.8272 41.0413 53.2556 42.3864C51.4437 46.6929 49.9545 51.1278 48.8007 55.6544C48.7414 55.8905 48.6823 56.1136 48.6297 56.35L65.8976 56.2974C66.1056 55.6 66.1659 54.8671 66.075 54.1452C65.6896 52.8678 65.3304 51.5555 64.9974 50.2081C64.882 48.5699 65.2039 46.9305 65.9305 45.4575C67.3702 42.4412 68.9896 39.5139 70.7796 36.6909C71.9022 34.8916 73.4213 33.3722 75.2215 32.2485C76.8839 31.2381 78.5528 30.2801 80.248 29.4335C80.5394 29.2485 80.8801 29.1562 81.2253 29.169C81.5703 29.1821 81.9033 29.2995 82.18 29.5058C82.8961 30.1618 82.837 31.3889 82.0484 32.3733C76.4082 39.5275 72.0673 47.6137 69.2223 56.2647L84.0001 56.2187C84.4074 55.3656 84.8278 54.5257 85.2616 53.6923C85.4641 53.3016 85.5563 52.863 85.5286 52.4239C85.5007 51.9846 85.3539 51.5613 85.1039 51.199Z" fill="url(#paint0_linear_6_140)"/>
<path d="M1.8529 59.8937C1.85811 60.7813 2.21485 61.6308 2.8452 62.2566C3.47555 62.8824 4.32827 63.2337 5.21712 63.2337L42.9724 63.1221C43.4849 60.8605 44.0852 58.6251 44.7728 56.416L5.19741 56.5275C4.75623 56.5283 4.31955 56.6162 3.91245 56.7859C3.50535 56.9558 3.13582 57.2041 2.82509 57.5169C2.51435 57.8297 2.26853 58.2007 2.10168 58.6085C1.93485 59.0164 1.85031 59.4532 1.8529 59.8937Z" fill="url(#paint1_linear_6_140)"/>
<path d="M47.1906 63.1095L63.6569 63.0635C63.9985 61.8562 64.36 60.6552 64.7542 59.4742C65.0631 58.5293 65.4112 57.5909 65.7463 56.6657C65.7853 56.5628 65.8182 56.4575 65.845 56.3508L48.5772 56.4033C48.0449 58.6145 47.585 60.8588 47.1906 63.1095Z" fill="url(#paint2_linear_6_140)"/>
<path d="M67.9608 60.3991C67.7242 61.2783 67.5007 62.1641 67.3036 63.0238L81.2073 62.9845C82.0145 60.7079 82.9424 58.4761 83.9867 56.2979L69.2091 56.3439C68.7295 57.6824 68.3286 59.0408 67.9608 60.3991Z" fill="url(#paint3_linear_6_140)"/>
<path d="M113.982 57.1835C113.671 56.8642 113.297 56.6119 112.885 56.4415C112.473 56.2712 112.03 56.1865 111.584 56.1926L87.0423 56.2649C86.1978 58.4578 85.4781 60.6968 84.8871 62.9708L111.603 62.8922C112.268 62.8899 112.917 62.691 113.468 62.3204C114.019 61.9496 114.448 61.424 114.7 60.81C114.952 60.196 115.015 59.5212 114.883 58.8708C114.751 58.2206 114.428 57.6242 113.956 57.1573L113.982 57.1835Z" fill="url(#paint4_linear_6_140)"/>
<path style="mix-blend-mode:multiply" d="M97.3977 47.7281C99.369 44.9264 99.1521 40.9762 96.5962 38.6664C94.0401 36.3567 89.6442 37.0915 87.1935 40.5825C86.2736 41.8948 85.4063 43.2071 84.5651 44.572C83.9665 45.5988 83.6962 46.7834 83.79 47.9678C83.884 49.1522 84.3379 50.2797 85.0909 51.1994C85.3487 51.5733 85.4966 52.0117 85.5175 52.4653C85.5384 52.9188 85.4316 53.3692 85.209 53.765C84.7754 54.5983 84.3549 55.4382 83.9475 56.2913L69.17 56.3373C72.0207 47.6848 76.3684 39.5987 82.0158 32.4459C82.7911 31.4615 82.8634 30.2082 82.1471 29.5784C81.8704 29.3722 81.5376 29.2547 81.1924 29.2417C80.8475 29.2289 80.5067 29.3211 80.2153 29.5062C78.5201 30.3723 76.851 31.3107 75.1886 32.3212C73.3886 33.4448 71.8693 34.9643 70.7469 36.7636C68.9567 39.5865 67.3375 42.5139 65.8978 45.5301C65.1586 47.0021 64.8254 48.644 64.9318 50.2872C65.2604 51.5998 65.6196 52.9121 66.0094 54.2244C66.1003 54.9462 66.0398 55.6792 65.832 56.3766L48.5642 56.4291C49.7333 51.6649 51.2711 46.9985 53.1636 42.4723C53.7352 41.16 54.8195 40.1493 55.8445 40.0247C57.1946 39.826 58.4823 39.3256 59.6121 38.5612C60.7418 37.7965 61.6841 36.7873 62.3692 35.6086C64.7733 31.6651 67.4797 27.9138 70.4644 24.388C70.6824 24.1346 70.8256 23.8256 70.8782 23.4956C70.9084 23.3582 70.899 23.2151 70.8514 23.083C70.8037 22.9506 70.7197 22.8345 70.6089 22.7475C70.2212 22.4719 69.5248 22.7475 69.0581 23.2922C66.7182 26.0566 64.5481 28.96 62.5598 31.9865C62.3826 32.2714 62.1271 32.4991 61.8238 32.6428C61.7141 32.6991 61.5924 32.7285 61.469 32.7285C61.3457 32.7285 61.224 32.6991 61.1142 32.6428C60.6608 32.4065 60.6805 31.5928 61.1142 30.9235C63.1605 27.8409 65.3922 24.8848 67.7966 22.0717C68.0232 21.8114 68.1734 21.4934 68.2304 21.1531C68.2536 21.0379 68.2503 20.919 68.2205 20.8053C68.191 20.6916 68.1359 20.5862 68.0595 20.4969C67.6982 20.1294 66.9096 20.3919 66.3839 21.0153C63.9529 23.8874 61.6992 26.9049 59.6357 30.0509C59.4445 30.3332 59.1815 30.5597 58.8736 30.707C58.7594 30.7715 58.6304 30.8053 58.4991 30.8053C58.368 30.8053 58.2389 30.7715 58.1246 30.707C58.0215 30.6328 57.9392 30.5336 57.8852 30.4187C57.8311 30.304 57.8073 30.1774 57.8156 30.0509C57.836 29.6965 57.9518 29.3541 58.1508 29.06C60.2559 25.8633 62.551 22.7956 65.0238 19.8735C65.556 19.2174 65.7204 18.4103 65.3063 18.1084C65.1993 18.0388 65.0765 17.997 64.9492 17.9867C64.8219 17.9764 64.6939 17.9979 64.577 18.0494C64.2377 18.1734 63.938 18.3865 63.7097 18.6662C61.1892 21.6261 58.8501 24.7356 56.7054 27.9773C56.2452 28.6861 55.4897 29.0862 55.0824 28.7646C54.9873 28.6859 54.9136 28.5846 54.8675 28.4699C54.8216 28.3554 54.8051 28.231 54.8195 28.1086C54.8444 27.7439 54.967 27.3926 55.1743 27.0914C57.3559 23.7601 59.7367 20.5631 62.3035 17.5179C62.816 16.9076 63.0198 16.1399 62.6979 15.7855C62.59 15.6859 62.4547 15.6208 62.3095 15.5986C62.1644 15.5764 62.0157 15.5981 61.8831 15.6609C61.5325 15.8004 61.2227 16.0261 60.9829 16.317C57.5915 20.3397 54.5162 24.6176 51.7838 29.1125C49.6876 32.5705 50.2134 35.7989 51.1268 37.5837C51.6129 38.5156 51.4751 39.992 50.8048 41.3306C48.6314 45.6421 46.7843 50.1099 45.2788 54.6969C45.0949 55.2676 44.9108 55.8319 44.7399 56.4159C43.6085 56.4264 42.4881 56.1934 41.4549 55.7329C40.4215 55.2725 39.4995 54.5954 38.7516 53.7475C38.0037 52.8997 37.4472 51.901 37.1198 50.8195C36.7926 49.7379 36.7024 48.5985 36.8551 47.479C39.7923 26.1925 53.282 9.91277 69.7087 8.90225C80.0909 11.5834 89.3087 17.5855 95.9534 25.9912C102.598 34.3969 106.304 44.744 106.505 55.4514C106.505 55.7138 106.505 55.9764 106.505 56.2323L87.0687 56.2913C87.2461 55.8189 87.43 55.3464 87.6206 54.8805C87.7781 54.471 88.0566 54.1194 88.4194 53.8719C88.7821 53.6247 89.2117 53.4936 89.6509 53.4961C91.4907 53.5747 93.981 53.122 95.236 51.0485C95.9193 49.9154 96.64 48.8087 97.3977 47.7281Z" fill="url(#paint5_linear_6_140)"/>
<path d="M58.2298 0.561951C57.0099 0.561951 55.84 1.04588 54.9775 1.90728C54.1148 2.76868 53.6303 3.93698 53.6303 5.1552V9.74842H62.8292V5.1552C62.8292 3.93698 62.3446 2.76868 61.482 1.90728C60.6195 1.04588 59.4496 0.561951 58.2298 0.561951Z" fill="url(#paint6_linear_6_140)"/>
</g>
<defs>
<linearGradient id="paint0_linear_6_140" x1="88.7306" y1="77.3306" x2="18.0545" y2="6.97669" gradientUnits="userSpaceOnUse">
<stop stop-color="#FFAB17"/>
<stop offset="0.28" stop-color="#FF8121"/>
<stop offset="0.6" stop-color="#FF572B"/>
<stop offset="0.85" stop-color="#FF3D31"/>
<stop offset="1" stop-color="#FF3333"/>
</linearGradient>
<linearGradient id="paint1_linear_6_140" x1="65.4674" y1="100.707" x2="-5.21522" y2="30.3535" gradientUnits="userSpaceOnUse">
<stop stop-color="#FFAB17"/>
<stop offset="0.28" stop-color="#FF8121"/>
<stop offset="0.6" stop-color="#FF572B"/>
<stop offset="0.85" stop-color="#FF3D31"/>
<stop offset="1" stop-color="#FF3333"/>
</linearGradient>
<linearGradient id="paint2_linear_6_140" x1="81.5439" y1="84.5575" x2="10.8678" y2="14.1971" gradientUnits="userSpaceOnUse">
<stop stop-color="#FFAB17"/>
<stop offset="0.28" stop-color="#FF8121"/>
<stop offset="0.6" stop-color="#FF572B"/>
<stop offset="0.85" stop-color="#FF3D31"/>
<stop offset="1" stop-color="#FF3333"/>
</linearGradient>
<linearGradient id="paint3_linear_6_140" x1="91.0693" y1="74.988" x2="20.3866" y2="4.63426" gradientUnits="userSpaceOnUse">
<stop stop-color="#FFAB17"/>
<stop offset="0.28" stop-color="#FF8121"/>
<stop offset="0.6" stop-color="#FF572B"/>
<stop offset="0.85" stop-color="#FF3D31"/>
<stop offset="1" stop-color="#FF3333"/>
</linearGradient>
<linearGradient id="paint4_linear_6_140" x1="102.698" y1="63.3061" x2="32.0217" y2="-7.05429" gradientUnits="userSpaceOnUse">
<stop stop-color="#FFAB17"/>
<stop offset="0.28" stop-color="#FF8121"/>
<stop offset="0.6" stop-color="#FF572B"/>
<stop offset="0.85" stop-color="#FF3D31"/>
<stop offset="1" stop-color="#FF3333"/>
</linearGradient>
<linearGradient id="paint5_linear_6_140" x1="71.627" y1="41.9347" x2="21.5036" y2="5.45612" gradientUnits="userSpaceOnUse">
<stop stop-color="white"/>
<stop offset="0.13" stop-color="#F3BCBC"/>
<stop offset="0.27" stop-color="#E98181"/>
<stop offset="0.38" stop-color="#E15757"/>
<stop offset="0.47" stop-color="#DD3D3D"/>
<stop offset="0.52" stop-color="#DB3333"/>
</linearGradient>
<linearGradient id="paint6_linear_6_140" x1="109.052" y1="56.9222" x2="38.3698" y2="-13.438" gradientUnits="userSpaceOnUse">
<stop stop-color="#FFAB17"/>
<stop offset="0.28" stop-color="#FF8121"/>
<stop offset="0.6" stop-color="#FF572B"/>
<stop offset="0.85" stop-color="#FF3D31"/>
<stop offset="1" stop-color="#FF3333"/>
</linearGradient>
<clipPath id="clip0_6_140">
<rect width="115.196" height="63.0219" fill="white" transform="translate(0 0.561951)"/>
</clipPath>
</defs>
</svg>
